<?xml version='1.0' encoding='UTF-8' standalone='no'?>
<svg width="1369pt" xmlns="http://www.w3.org/2000/svg" xmlns:xlink="http://www.w3.org/1999/xlink" height="657pt" viewBox="0 0 1369 657">
 <title>gl2ps_renderer figure</title>
 <desc>
Creator: GL2PS 1.4.2, (C) 1999-2020 C. Geuzaine
For: Octave
CreationDate: Mon Aug  1 20:12:59 2022
</desc>
 <defs/>
 <polygon points="0,0 1369,0 1369,657 0,657" fill="#ffffff"/>
 <g>
  <polygon shape-rendering="crispEdges" points="0,657 1369,657 1369,0 0,0" fill="#ffffff"/>
  <clipPath id="cp001369657">
   <polygon points="0,657 1369,657 1369,0 0,0"/>
  </clipPath>
  <g clip-path="url(#cp001369657)">
   <polygon shape-rendering="crispEdges" points="178.09,584.849 1239.78,584.849 1239.78,49.2852 178.09,49.2852" fill="#ffffff"/>
   <polyline stroke="#262626" stroke-linejoin="miter" stroke-width="0.5" points="178.09,584.849 178.09,574.241" fill="none" stroke-linecap="butt"/>
   <polyline stroke="#262626" stroke-linejoin="miter" stroke-width="0.5" points="178.09,49.2852 178.09,59.8931" fill="none" stroke-linecap="butt"/>
   <polyline stroke="#262626" stroke-linejoin="miter" stroke-width="0.5" points="329.76,584.849 329.76,574.241" fill="none" stroke-linecap="butt"/>
   <polyline stroke="#262626" stroke-linejoin="miter" stroke-width="0.5" points="329.76,49.2852 329.76,59.8931" fill="none" stroke-linecap="butt"/>
   <polyline stroke="#262626" stroke-linejoin="miter" stroke-width="0.5" points="481.429,584.849 481.429,574.241" fill="none" stroke-linecap="butt"/>
   <polyline stroke="#262626" stroke-linejoin="miter" stroke-width="0.5" points="481.429,49.2852 481.429,59.8931" fill="none" stroke-linecap="butt"/>
   <polyline stroke="#262626" stroke-linejoin="miter" stroke-width="0.5" points="633.099,584.849 633.099,574.241" fill="none" stroke-linecap="butt"/>
   <polyline stroke="#262626" stroke-linejoin="miter" stroke-width="0.5" points="633.099,49.2852 633.099,59.8931" fill="none" stroke-linecap="butt"/>
   <polyline stroke="#262626" stroke-linejoin="miter" stroke-width="0.5" points="784.769,584.849 784.769,574.241" fill="none" stroke-linecap="butt"/>
   <polyline stroke="#262626" stroke-linejoin="miter" stroke-width="0.5" points="784.769,49.2852 784.769,59.8931" fill="none" stroke-linecap="butt"/>
   <polyline stroke="#262626" stroke-linejoin="miter" stroke-width="0.5" points="936.438,584.849 936.438,574.241" fill="none" stroke-linecap="butt"/>
   <polyline stroke="#262626" stroke-linejoin="miter" stroke-width="0.5" points="936.438,49.2852 936.438,59.8931" fill="none" stroke-linecap="butt"/>
   <polyline stroke="#262626" stroke-linejoin="miter" stroke-width="0.5" points="1088.11,584.849 1088.11,574.241" fill="none" stroke-linecap="butt"/>
   <polyline stroke="#262626" stroke-linejoin="miter" stroke-width="0.5" points="1088.11,49.2852 1088.11,59.8931" fill="none" stroke-linecap="butt"/>
   <polyline stroke="#262626" stroke-linejoin="miter" stroke-width="0.5" points="1239.78,584.849 1239.78,574.241" fill="none" stroke-linecap="butt"/>
   <polyline stroke="#262626" stroke-linejoin="miter" stroke-width="0.5" points="1239.78,49.2852 1239.78,59.8931" fill="none" stroke-linecap="butt"/>
   <text xml:space="preserve" font-style="normal" font-size="10" transform="translate(175.09,600.343) rotate(-0,3,-8)" font-weight="normal" font-family="FreeSans">
    <tspan y="-0" fill="rgb(38,38,38)" x="0 ">0</tspan>
   </text>
   <text xml:space="preserve" font-style="normal" font-size="10" transform="translate(323.76,600.343) rotate(-0,6,-8)" font-weight="normal" font-family="FreeSans">
    <tspan y="-0" fill="rgb(38,38,38)" x="0 6 ">20</tspan>
   </text>
   <text xml:space="preserve" font-style="normal" font-size="10" transform="translate(475.429,600.343) rotate(-0,6,-8)" font-weight="normal" font-family="FreeSans">
    <tspan y="-0" fill="rgb(38,38,38)" x="0 6 ">40</tspan>
   </text>
   <text xml:space="preserve" font-style="normal" font-size="10" transform="translate(627.099,600.343) rotate(-0,6,-8)" font-weight="normal" font-family="FreeSans">
    <tspan y="-0" fill="rgb(38,38,38)" x="0 6 ">60</tspan>
   </text>
   <text xml:space="preserve" font-style="normal" font-size="10" transform="translate(778.769,600.343) rotate(-0,6,-8)" font-weight="normal" font-family="FreeSans">
    <tspan y="-0" fill="rgb(38,38,38)" x="0 6 ">80</tspan>
   </text>
   <text xml:space="preserve" font-style="normal" font-size="10" transform="translate(927.439,600.343) rotate(-0,9,-8)" font-weight="normal" font-family="FreeSans">
    <tspan y="-0" fill="rgb(38,38,38)" x="0 6 12 ">100</tspan>
   </text>
   <text xml:space="preserve" font-style="normal" font-size="10" transform="translate(1079.11,600.343) rotate(-0,9,-8)" font-weight="normal" font-family="FreeSans">
    <tspan y="-0" fill="rgb(38,38,38)" x="0 6 12 ">120</tspan>
   </text>
   <text xml:space="preserve" font-style="normal" font-size="10" transform="translate(1230.78,600.343) rotate(-0,9,-8)" font-weight="normal" font-family="FreeSans">
    <tspan y="-0" fill="rgb(38,38,38)" x="0 6 12 ">140</tspan>
   </text>
   <polyline stroke="#262626" stroke-linejoin="miter" stroke-width="0.5" points="178.09,584.849 188.704,584.849" fill="none" stroke-linecap="butt"/>
   <polyline stroke="#262626" stroke-linejoin="miter" stroke-width="0.5" points="1239.78,584.849 1229.16,584.849" fill="none" stroke-linecap="butt"/>
   <polyline stroke="#262626" stroke-linejoin="miter" stroke-width="0.5" points="178.09,450.958 188.704,450.958" fill="none" stroke-linecap="butt"/>
   <polyline stroke="#262626" stroke-linejoin="miter" stroke-width="0.5" points="1239.78,450.958 1229.16,450.958" fill="none" stroke-linecap="butt"/>
   <polyline stroke="#262626" stroke-linejoin="miter" stroke-width="0.5" points="178.09,317.067 188.704,317.067" fill="none" stroke-linecap="butt"/>
   <polyline stroke="#262626" stroke-linejoin="miter" stroke-width="0.5" points="1239.78,317.067 1229.16,317.067" fill="none" stroke-linecap="butt"/>
   <polyline stroke="#262626" stroke-linejoin="miter" stroke-width="0.5" points="178.09,183.176 188.704,183.176" fill="none" stroke-linecap="butt"/>
   <polyline stroke="#262626" stroke-linejoin="miter" stroke-width="0.5" points="1239.78,183.176 1229.16,183.176" fill="none" stroke-linecap="butt"/>
   <polyline stroke="#262626" stroke-linejoin="miter" stroke-width="0.5" points="178.09,49.2852 188.704,49.2852" fill="none" stroke-linecap="butt"/>
   <polyline stroke="#262626" stroke-linejoin="miter" stroke-width="0.5" points="1239.78,49.2852 1229.16,49.2852" fill="none" stroke-linecap="butt"/>
   <text xml:space="preserve" font-style="normal" font-size="10" transform="translate(167.091,588.849) rotate(-0,6,-4)" font-weight="normal" font-family="FreeSans">
    <tspan y="-0" fill="rgb(38,38,38)" x="0 ">0</tspan>
   </text>
   <text xml:space="preserve" font-style="normal" font-size="10" transform="translate(155.091,454.958) rotate(-0,18,-4)" font-weight="normal" font-family="FreeSans">
    <tspan y="-0" fill="rgb(38,38,38)" x="0 6 12 ">500</tspan>
   </text>
   <text xml:space="preserve" font-style="normal" font-size="10" transform="translate(149.091,321.067) rotate(-0,24,-4)" font-weight="normal" font-family="FreeSans">
    <tspan y="-0" fill="rgb(38,38,38)" x="0 6 12 18 ">1000</tspan>
   </text>
   <text xml:space="preserve" font-style="normal" font-size="10" transform="translate(149.091,187.176) rotate(-0,24,-4)" font-weight="normal" font-family="FreeSans">
    <tspan y="-0" fill="rgb(38,38,38)" x="0 6 12 18 ">1500</tspan>
   </text>
   <text xml:space="preserve" font-style="normal" font-size="10" transform="translate(149.091,53.285) rotate(-0,24,-4)" font-weight="normal" font-family="FreeSans">
    <tspan y="-0" fill="rgb(38,38,38)" x="0 6 12 18 ">2000</tspan>
   </text>
   <polyline stroke="#262626" stroke-dasharray="16,0" stroke-linejoin="miter" stroke-width="0.5" points="178.09,584.849 1239.78,584.849" fill="none" stroke-linecap="square"/>
   <polyline stroke="#262626" stroke-dasharray="16,0" stroke-linejoin="miter" stroke-width="0.5" points="178.09,49.2852 1239.78,49.2852" fill="none" stroke-linecap="square"/>
   <polyline stroke="#262626" stroke-dasharray="16,0" stroke-linejoin="miter" stroke-width="0.5" points="178.09,584.849 178.09,49.2852" fill="none" stroke-linecap="square"/>
   <polyline stroke="#262626" stroke-dasharray="16,0" stroke-linejoin="miter" stroke-width="0.5" points="1239.78,584.849 1239.78,49.2852" fill="none" stroke-linecap="square"/>
   <text xml:space="preserve" font-style="normal" font-size="11" transform="translate(681.434,617.343) rotate(-0,27.5,-12)" font-weight="normal" font-family="FreeSans">
    <tspan y="-3" fill="rgb(38,38,38)" x="0 7 13 19 25 31 35 40 43 49 ">Speed-step</tspan>
   </text>
   <text xml:space="preserve" font-style="normal" font-size="11" transform="translate(124.591,317.067) rotate(-90,19.5,0)" font-weight="normal" font-family="FreeSans">
    <tspan y="-3" fill="rgb(38,38,38)" x="0 7 13 16 22 28 30 36 ">Setpoint</tspan>
   </text>
   <polyline stroke="#0071bc" stroke-linejoin="round" stroke-width="0.5" points="185.673,582.707 655.85,314.925 1133.61,156.398" fill="none" stroke-linecap="butt"/>
   <polyline stroke="#ff0000" stroke-linejoin="miter" stroke-width="0.5" points="182.673,582.707 188.673,582.707" fill="none" stroke-linecap="square"/>
   <polyline stroke="#ff0000" stroke-linejoin="miter" stroke-width="0.5" points="185.673,579.707 185.673,585.707" fill="none" stroke-linecap="square"/>
   <polyline stroke="#ff0000" stroke-linejoin="miter" stroke-width="0.5" points="183.552,580.585 187.794,584.828" fill="none" stroke-linecap="square"/>
   <polyline stroke="#ff0000" stroke-linejoin="miter" stroke-width="0.5" points="183.552,584.828 187.794,580.585" fill="none" stroke-linecap="square"/>
   <polyline stroke="#00ff00" stroke-linejoin="miter" stroke-width="0.5" points="652.85,314.925 658.85,314.925" fill="none" stroke-linecap="square"/>
   <polyline stroke="#00ff00" stroke-linejoin="miter" stroke-width="0.5" points="655.85,311.925 655.85,317.925" fill="none" stroke-linecap="square"/>
   <polyline stroke="#00ff00" stroke-linejoin="miter" stroke-width="0.5" points="653.729,312.804 657.971,317.046" fill="none" stroke-linecap="square"/>
   <polyline stroke="#00ff00" stroke-linejoin="miter" stroke-width="0.5" points="653.729,317.046 657.971,312.804" fill="none" stroke-linecap="square"/>
   <polyline stroke="#0000ff" stroke-linejoin="miter" stroke-width="0.5" points="1130.61,156.398 1136.61,156.398" fill="none" stroke-linecap="square"/>
   <polyline stroke="#0000ff" stroke-linejoin="miter" stroke-width="0.5" points="1133.61,153.398 1133.61,159.398" fill="none" stroke-linecap="square"/>
   <polyline stroke="#0000ff" stroke-linejoin="miter" stroke-width="0.5" points="1131.49,154.276 1135.73,158.519" fill="none" stroke-linecap="square"/>
   <polyline stroke="#0000ff" stroke-linejoin="miter" stroke-width="0.5" points="1131.49,158.519 1135.73,154.276" fill="none" stroke-linecap="square"/>
  </g>
  <clipPath id="cp001369657">
   <polygon points="0,657 1369,657 1369,0 0,0"/>
  </clipPath>
  <g clip-path="url(#cp001369657)">
   <polygon shape-rendering="crispEdges" points="1138.73,118.717 1231.37,118.717 1231.37,57.6943 1138.73,57.6943" fill="#ffffff"/>
   <polyline stroke="#262626" stroke-dasharray="16,0" stroke-linejoin="miter" stroke-width="0.5" points="1138.73,118.717 1231.37,118.717" fill="none" stroke-linecap="square"/>
   <polyline stroke="#262626" stroke-dasharray="16,0" stroke-linejoin="miter" stroke-width="0.5" points="1138.73,57.6943 1231.37,57.6943" fill="none" stroke-linecap="square"/>
   <polyline stroke="#262626" stroke-dasharray="16,0" stroke-linejoin="miter" stroke-width="0.5" points="1138.73,118.717 1138.73,57.6943" fill="none" stroke-linecap="square"/>
   <polyline stroke="#262626" stroke-dasharray="16,0" stroke-linejoin="miter" stroke-width="0.5" points="1231.37,118.717 1231.37,57.6943" fill="none" stroke-linecap="square"/>
   <polyline stroke="#0071bc" stroke-linejoin="round" stroke-width="0.5" points="1142.94,66.8989 1163.96,66.8989" fill="none" stroke-linecap="butt"/>
   <text xml:space="preserve" font-style="normal" font-size="9" transform="translate(1168.16,71.8989) rotate(-0,-0,-5)" font-weight="normal" font-family="FreeSans">
    <tspan y="-2" fill="rgb(0,0,0)" x="0 6 11 14 19 21 24 30 35 40 45 50 54 56 ">Setp.(Speeds.)</tspan>
   </text>
   <polyline stroke="#ff0000" stroke-linejoin="miter" stroke-width="0.5" points="1150.45,81.1035 1156.45,81.1035" fill="none" stroke-linecap="square"/>
   <polyline stroke="#ff0000" stroke-linejoin="miter" stroke-width="0.5" points="1153.45,78.1035 1153.45,84.1035" fill="none" stroke-linecap="square"/>
   <polyline stroke="#ff0000" stroke-linejoin="miter" stroke-width="0.5" points="1151.33,78.9824 1155.57,83.2246" fill="none" stroke-linecap="square"/>
   <polyline stroke="#ff0000" stroke-linejoin="miter" stroke-width="0.5" points="1151.33,83.2246 1155.57,78.9824" fill="none" stroke-linecap="square"/>
   <text xml:space="preserve" font-style="normal" font-size="9" transform="translate(1168.16,86.1035) rotate(-0,-0,-5)" font-weight="normal" font-family="FreeSans">
    <tspan y="-2" fill="rgb(0,0,0)" x="0 5 7 9 11 13 19 25 ">1 |  CV2</tspan>
   </text>
   <polyline stroke="#00ff00" stroke-linejoin="miter" stroke-width="0.5" points="1150.45,95.3081 1156.45,95.3081" fill="none" stroke-linecap="square"/>
   <polyline stroke="#00ff00" stroke-linejoin="miter" stroke-width="0.5" points="1153.45,92.3081 1153.45,98.3081" fill="none" stroke-linecap="square"/>
   <polyline stroke="#00ff00" stroke-linejoin="miter" stroke-width="0.5" points="1151.33,93.187 1155.57,97.4297" fill="none" stroke-linecap="square"/>
   <polyline stroke="#00ff00" stroke-linejoin="miter" stroke-width="0.5" points="1151.33,97.4297 1155.57,93.187" fill="none" stroke-linecap="square"/>
   <text xml:space="preserve" font-style="normal" font-size="9" transform="translate(1168.16,100.308) rotate(-0,-0,-5)" font-weight="normal" font-family="FreeSans">
    <tspan y="-2" fill="rgb(0,0,0)" x="0 5 10 12 14 16 18 24 30 35 39 44 ">63 |  CV6*16</tspan>
   </text>
   <polyline stroke="#0000ff" stroke-linejoin="miter" stroke-width="0.5" points="1150.45,109.513 1156.45,109.513" fill="none" stroke-linecap="square"/>
   <polyline stroke="#0000ff" stroke-linejoin="miter" stroke-width="0.5" points="1153.45,106.513 1153.45,112.513" fill="none" stroke-linecap="square"/>
   <polyline stroke="#0000ff" stroke-linejoin="miter" stroke-width="0.5" points="1151.33,107.392 1155.57,111.634" fill="none" stroke-linecap="square"/>
   <polyline stroke="#0000ff" stroke-linejoin="miter" stroke-width="0.5" points="1151.33,111.634 1155.57,107.392" fill="none" stroke-linecap="square"/>
   <text xml:space="preserve" font-style="normal" font-size="9" transform="translate(1168.16,114.513) rotate(-0,-0,-5)" font-weight="normal" font-family="FreeSans">
    <tspan y="-2" fill="rgb(0,0,0)" x="0 5 10 15 17 19 21 23 29 35 40 44 49 ">126 |  CV5*16</tspan>
   </text>
  </g>
 </g>
</svg>
