<?xml version='1.0' encoding='UTF-8' standalone='no'?>
<svg xmlns:xlink="http://www.w3.org/1999/xlink" width="1369pt" xmlns="http://www.w3.org/2000/svg" viewBox="0 0 1369 657" height="657pt">
 <title>gl2ps_renderer figure</title>
 <desc>
Creator: GL2PS 1.4.2, (C) 1999-2020 C. Geuzaine
For: Octave
CreationDate: Thu Aug  4 01:55:04 2022
</desc>
 <defs/>
 <polygon fill="#ffffff" points="0,0 1369,0 1369,657 0,657"/>
 <g>
  <polygon fill="#ffffff" points="0,657 1369,657 1369,0 0,0" shape-rendering="crispEdges"/>
  <clipPath id="cp001369657">
   <polygon points="0,657 1369,657 1369,0 0,0"/>
  </clipPath>
  <g clip-path="url(#cp001369657)">
   <polygon fill="#ffffff" shape-rendering="crispEdges" points="178.09,584.849 1239.78,584.849 1239.78,49.2852 178.09,49.2852"/>
   <polyline stroke-width="0.5" stroke="#262626" fill="none" stroke-linecap="butt" stroke-linejoin="miter" points="178.09,584.849 178.09,574.241"/>
   <polyline stroke-width="0.5" stroke="#262626" fill="none" stroke-linecap="butt" stroke-linejoin="miter" points="178.09,49.2852 178.09,59.8931"/>
   <polyline stroke-width="0.5" stroke="#262626" fill="none" stroke-linecap="butt" stroke-linejoin="miter" points="443.512,584.849 443.512,574.241"/>
   <polyline stroke-width="0.5" stroke="#262626" fill="none" stroke-linecap="butt" stroke-linejoin="miter" points="443.512,49.2852 443.512,59.8931"/>
   <polyline stroke-width="0.5" stroke="#262626" fill="none" stroke-linecap="butt" stroke-linejoin="miter" points="708.934,584.849 708.934,574.241"/>
   <polyline stroke-width="0.5" stroke="#262626" fill="none" stroke-linecap="butt" stroke-linejoin="miter" points="708.934,49.2852 708.934,59.8931"/>
   <polyline stroke-width="0.5" stroke="#262626" fill="none" stroke-linecap="butt" stroke-linejoin="miter" points="974.356,584.849 974.356,574.241"/>
   <polyline stroke-width="0.5" stroke="#262626" fill="none" stroke-linecap="butt" stroke-linejoin="miter" points="974.356,49.2852 974.356,59.8931"/>
   <polyline stroke-width="0.5" stroke="#262626" fill="none" stroke-linecap="butt" stroke-linejoin="miter" points="1239.78,584.849 1239.78,574.241"/>
   <polyline stroke-width="0.5" stroke="#262626" fill="none" stroke-linecap="butt" stroke-linejoin="miter" points="1239.78,49.2852 1239.78,59.8931"/>
   <text xml:space="preserve" font-family="FreeSans" font-style="normal" font-weight="normal" transform="translate(175.09,600.343) rotate(-0,3,-8)" font-size="10">
    <tspan x="0 " fill="rgb(38,38,38)" y="-0">0</tspan>
   </text>
   <text xml:space="preserve" font-family="FreeSans" font-style="normal" font-weight="normal" transform="translate(434.512,600.343) rotate(-0,9,-8)" font-size="10">
    <tspan x="0 6 12 " fill="rgb(38,38,38)" y="-0">500</tspan>
   </text>
   <text xml:space="preserve" font-family="FreeSans" font-style="normal" font-weight="normal" transform="translate(696.934,600.343) rotate(-0,12,-8)" font-size="10">
    <tspan x="0 6 12 18 " fill="rgb(38,38,38)" y="-0">1000</tspan>
   </text>
   <text xml:space="preserve" font-family="FreeSans" font-style="normal" font-weight="normal" transform="translate(962.356,600.343) rotate(-0,12,-8)" font-size="10">
    <tspan x="0 6 12 18 " fill="rgb(38,38,38)" y="-0">1500</tspan>
   </text>
   <text xml:space="preserve" font-family="FreeSans" font-style="normal" font-weight="normal" transform="translate(1227.78,600.343) rotate(-0,12,-8)" font-size="10">
    <tspan x="0 6 12 18 " fill="rgb(38,38,38)" y="-0">2000</tspan>
   </text>
   <polyline stroke-width="0.5" stroke="#262626" fill="none" stroke-linecap="butt" stroke-linejoin="miter" points="178.09,584.849 188.704,584.849"/>
   <polyline stroke-width="0.5" stroke="#262626" fill="none" stroke-linecap="butt" stroke-linejoin="miter" points="1239.78,584.849 1229.16,584.849"/>
   <polyline stroke-width="0.5" stroke="#262626" fill="none" stroke-linecap="butt" stroke-linejoin="miter" points="178.09,450.958 188.704,450.958"/>
   <polyline stroke-width="0.5" stroke="#262626" fill="none" stroke-linecap="butt" stroke-linejoin="miter" points="1239.78,450.958 1229.16,450.958"/>
   <polyline stroke-width="0.5" stroke="#262626" fill="none" stroke-linecap="butt" stroke-linejoin="miter" points="178.09,317.067 188.704,317.067"/>
   <polyline stroke-width="0.5" stroke="#262626" fill="none" stroke-linecap="butt" stroke-linejoin="miter" points="1239.78,317.067 1229.16,317.067"/>
   <polyline stroke-width="0.5" stroke="#262626" fill="none" stroke-linecap="butt" stroke-linejoin="miter" points="178.09,183.176 188.704,183.176"/>
   <polyline stroke-width="0.5" stroke="#262626" fill="none" stroke-linecap="butt" stroke-linejoin="miter" points="1239.78,183.176 1229.16,183.176"/>
   <polyline stroke-width="0.5" stroke="#262626" fill="none" stroke-linecap="butt" stroke-linejoin="miter" points="178.09,49.2852 188.704,49.2852"/>
   <polyline stroke-width="0.5" stroke="#262626" fill="none" stroke-linecap="butt" stroke-linejoin="miter" points="1239.78,49.2852 1229.16,49.2852"/>
   <text xml:space="preserve" font-family="FreeSans" font-style="normal" font-weight="normal" transform="translate(167.091,588.849) rotate(-0,6,-4)" font-size="10">
    <tspan x="0 " fill="rgb(38,38,38)" y="-0">0</tspan>
   </text>
   <text xml:space="preserve" font-family="FreeSans" font-style="normal" font-weight="normal" transform="translate(167.091,454.958) rotate(-0,6,-4)" font-size="10">
    <tspan x="0 " fill="rgb(38,38,38)" y="-0">5</tspan>
   </text>
   <text xml:space="preserve" font-family="FreeSans" font-style="normal" font-weight="normal" transform="translate(161.091,321.067) rotate(-0,12,-4)" font-size="10">
    <tspan x="0 6 " fill="rgb(38,38,38)" y="-0">10</tspan>
   </text>
   <text xml:space="preserve" font-family="FreeSans" font-style="normal" font-weight="normal" transform="translate(161.091,187.176) rotate(-0,12,-4)" font-size="10">
    <tspan x="0 6 " fill="rgb(38,38,38)" y="-0">15</tspan>
   </text>
   <text xml:space="preserve" font-family="FreeSans" font-style="normal" font-weight="normal" transform="translate(161.091,53.285) rotate(-0,12,-4)" font-size="10">
    <tspan x="0 6 " fill="rgb(38,38,38)" y="-0">20</tspan>
   </text>
   <polyline stroke-width="0.5" stroke-dasharray="16,0" stroke="#262626" fill="none" stroke-linecap="square" stroke-linejoin="miter" points="178.09,584.849 1239.78,584.849"/>
   <polyline stroke-width="0.5" stroke-dasharray="16,0" stroke="#262626" fill="none" stroke-linecap="square" stroke-linejoin="miter" points="178.09,49.2852 1239.78,49.2852"/>
   <polyline stroke-width="0.5" stroke-dasharray="16,0" stroke="#262626" fill="none" stroke-linecap="square" stroke-linejoin="miter" points="178.09,584.849 178.09,49.2852"/>
   <polyline stroke-width="0.5" stroke-dasharray="16,0" stroke="#262626" fill="none" stroke-linecap="square" stroke-linejoin="miter" points="1239.78,584.849 1239.78,49.2852"/>
   <text xml:space="preserve" font-family="FreeSans" font-style="normal" font-weight="normal" transform="translate(703.434,615.343) rotate(-0,5.5,-10)" font-size="11">
    <tspan x="0 5 " fill="rgb(38,38,38)" y="-3">sp</tspan>
   </text>
   <text xml:space="preserve" font-family="FreeSans" font-style="normal" font-weight="normal" transform="translate(140.091,317.067) rotate(-90,16,0)" font-size="11">
    <tspan x="0 " fill="rgb(38,38,38)" y="-4">k</tspan>
    <tspan x="6 " fill="rgb(38,38,38)" y="-2" font-size="7.7">p</tspan>
    <tspan x="10 13 17 22 28 " fill="rgb(38,38,38)" y="-4"> (sp)</tspan>
   </text>
   <polyline stroke-width="0.5" stroke="#0071bc" fill="none" stroke-linecap="butt" stroke-linejoin="round" points="178.09,49.2852 232.023,504.515 1202.83,544.682"/>
   <polyline stroke-width="0.5" stroke="#ff0000" fill="none" stroke-linecap="square" stroke-linejoin="miter" points="175.09,49.2852 181.09,49.2852"/>
   <polyline stroke-width="0.5" stroke="#ff0000" fill="none" stroke-linecap="square" stroke-linejoin="miter" points="178.09,46.2852 178.09,52.2852"/>
   <polyline stroke-width="0.5" stroke="#ff0000" fill="none" stroke-linecap="square" stroke-linejoin="miter" points="175.968,47.1636 180.211,51.4062"/>
   <polyline stroke-width="0.5" stroke="#ff0000" fill="none" stroke-linecap="square" stroke-linejoin="miter" points="175.968,51.4062 180.211,47.1636"/>
   <polyline stroke-width="0.5" stroke="#00ff00" fill="none" stroke-linecap="square" stroke-linejoin="miter" points="229.023,504.515 235.023,504.515"/>
   <polyline stroke-width="0.5" stroke="#00ff00" fill="none" stroke-linecap="square" stroke-linejoin="miter" points="232.023,501.515 232.023,507.515"/>
   <polyline stroke-width="0.5" stroke="#00ff00" fill="none" stroke-linecap="square" stroke-linejoin="miter" points="229.902,502.393 234.145,506.636"/>
   <polyline stroke-width="0.5" stroke="#00ff00" fill="none" stroke-linecap="square" stroke-linejoin="miter" points="229.902,506.636 234.145,502.393"/>
   <polyline stroke-width="0.5" stroke="#0000ff" fill="none" stroke-linecap="square" stroke-linejoin="miter" points="1199.83,544.682 1205.83,544.682"/>
   <polyline stroke-width="0.5" stroke="#0000ff" fill="none" stroke-linecap="square" stroke-linejoin="miter" points="1202.83,541.682 1202.83,547.682"/>
   <polyline stroke-width="0.5" stroke="#0000ff" fill="none" stroke-linecap="square" stroke-linejoin="miter" points="1200.71,542.561 1204.95,546.803"/>
   <polyline stroke-width="0.5" stroke="#0000ff" fill="none" stroke-linecap="square" stroke-linejoin="miter" points="1200.71,546.803 1204.95,542.561"/>
  </g>
  <clipPath id="cp001369657">
   <polygon points="0,657 1369,657 1369,0 0,0"/>
  </clipPath>
  <g clip-path="url(#cp001369657)">
   <polygon fill="#ffffff" shape-rendering="crispEdges" points="1171.73,120.717 1231.37,120.717 1231.37,57.6943 1171.73,57.6943"/>
   <polyline stroke-width="0.5" stroke-dasharray="16,0" stroke="#262626" fill="none" stroke-linecap="square" stroke-linejoin="miter" points="1171.73,120.717 1231.37,120.717"/>
   <polyline stroke-width="0.5" stroke-dasharray="16,0" stroke="#262626" fill="none" stroke-linecap="square" stroke-linejoin="miter" points="1171.73,57.6943 1231.37,57.6943"/>
   <polyline stroke-width="0.5" stroke-dasharray="16,0" stroke="#262626" fill="none" stroke-linecap="square" stroke-linejoin="miter" points="1171.73,120.717 1171.73,57.6943"/>
   <polyline stroke-width="0.5" stroke-dasharray="16,0" stroke="#262626" fill="none" stroke-linecap="square" stroke-linejoin="miter" points="1231.37,120.717 1231.37,57.6943"/>
   <polyline stroke-width="0.5" stroke="#0071bc" fill="none" stroke-linecap="butt" stroke-linejoin="round" points="1175.94,67.8989 1196.96,67.8989"/>
   <text xml:space="preserve" font-family="FreeSans" font-style="normal" font-weight="normal" transform="translate(1201.16,73.8989) rotate(-0,-0,-6)" font-size="9">
    <tspan x="0 " fill="rgb(0,0,0)" y="-4">k</tspan>
    <tspan x="5 " fill="rgb(0,0,0)" y="-2" font-size="6.3">p</tspan>
   </text>
   <polyline stroke-width="0.5" stroke="#ff0000" fill="none" stroke-linecap="square" stroke-linejoin="miter" points="1183.45,83.1035 1189.45,83.1035"/>
   <polyline stroke-width="0.5" stroke="#ff0000" fill="none" stroke-linecap="square" stroke-linejoin="miter" points="1186.45,80.1035 1186.45,86.1035"/>
   <polyline stroke-width="0.5" stroke="#ff0000" fill="none" stroke-linecap="square" stroke-linejoin="miter" points="1184.33,80.9824 1188.57,85.2246"/>
   <polyline stroke-width="0.5" stroke="#ff0000" fill="none" stroke-linecap="square" stroke-linejoin="miter" points="1184.33,85.2246 1188.57,80.9824"/>
   <text xml:space="preserve" font-family="FreeSans" font-style="normal" font-weight="normal" transform="translate(1201.16,88.1035) rotate(-0,-0,-5)" font-size="9">
    <tspan x="0 4 9 11 13 15 17 21 " fill="rgb(0,0,0)" y="-2">x0 |  y0</tspan>
   </text>
   <polyline stroke-width="0.5" stroke="#00ff00" fill="none" stroke-linecap="square" stroke-linejoin="miter" points="1183.45,97.3081 1189.45,97.3081"/>
   <polyline stroke-width="0.5" stroke="#00ff00" fill="none" stroke-linecap="square" stroke-linejoin="miter" points="1186.45,94.3081 1186.45,100.308"/>
   <polyline stroke-width="0.5" stroke="#00ff00" fill="none" stroke-linecap="square" stroke-linejoin="miter" points="1184.33,95.187 1188.57,99.4297"/>
   <polyline stroke-width="0.5" stroke="#00ff00" fill="none" stroke-linecap="square" stroke-linejoin="miter" points="1184.33,99.4297 1188.57,95.187"/>
   <text xml:space="preserve" font-family="FreeSans" font-style="normal" font-weight="normal" transform="translate(1201.16,102.308) rotate(-0,-0,-5)" font-size="9">
    <tspan x="0 4 9 11 13 15 17 21 " fill="rgb(0,0,0)" y="-2">x1 |  y1</tspan>
   </text>
   <polyline stroke-width="0.5" stroke="#0000ff" fill="none" stroke-linecap="square" stroke-linejoin="miter" points="1183.45,111.513 1189.45,111.513"/>
   <polyline stroke-width="0.5" stroke="#0000ff" fill="none" stroke-linecap="square" stroke-linejoin="miter" points="1186.45,108.513 1186.45,114.513"/>
   <polyline stroke-width="0.5" stroke="#0000ff" fill="none" stroke-linecap="square" stroke-linejoin="miter" points="1184.33,109.392 1188.57,113.634"/>
   <polyline stroke-width="0.5" stroke="#0000ff" fill="none" stroke-linecap="square" stroke-linejoin="miter" points="1184.33,113.634 1188.57,109.392"/>
   <text xml:space="preserve" font-family="FreeSans" font-style="normal" font-weight="normal" transform="translate(1201.16,116.513) rotate(-0,-0,-5)" font-size="9">
    <tspan x="0 4 9 11 13 15 17 21 " fill="rgb(0,0,0)" y="-2">x2 |  y2</tspan>
   </text>
  </g>
 </g>
</svg>
